<svg xmlns="http://www.w3.org/2000/svg" width="20" height="20"><path d="M7.555 1.14v7.286h3.377q1.162 0 1.695-.505.547-.52.725-2.038h.505v6.276h-.505q-.014-1.08-.288-1.586-.26-.506-.738-.752-.465-.26-1.394-.26H7.555v5.824q0 1.409.177 1.86.137.342.575.588.601.328 1.257.328h.67v.506H2.277v-.506h.657q1.148 0 1.668-.67.328-.438.328-2.106V3.41q0-1.408-.178-1.86-.137-.341-.56-.587Q3.603.633 2.933.633h-.657V.128h13.795l.178 4.074h-.479q-.355-1.299-.834-1.9-.464-.616-1.162-.89-.683-.273-2.132-.273z" aria-label="F" font-size="28" font-family="serif" fill="currentColor"/></svg>