<svg id="Layer_1" xmlns="http://www.w3.org/2000/svg" xmlns:xlink="http://www.w3.org/1999/xlink" viewBox="0 0 235 235" width="128" height="128">
    <style>
        .st0 {
            fill: #0179cb;
            stroke: white;
            stroke-width: 2px;
        }
        .clr {
            fill: #0179cb;
            stroke: white;
            stroke-width: 2px;
        }
    </style>
    <rect fill="#0179cb" x="0" y="0" width="250" height="250"/>
    <g transform="translate(25,25) scale(0.8)">
        <path d="M 83 144 L 25 189 L 0 177 V 59 L 25 46 L 83 91 L 174 0 L 234 24 V 211 L 174 235 L 83 144 Z M 172 160 V 75 L 118 118 L 172 160 Z M 27 145 L 56 119 L 27 90 V 145 Z" class="st0"/>
        <circle r="3%" cx="83" cy="144" class="clr"/>
        <circle r="3%" cx="25" cy="189" class="clr"/>
        <circle r="3%" cx="0" cy="177" class="clr"/>
        <circle r="3%" cx="0" cy="59" class="clr"/>
        <circle r="3%" cx="25" cy="46" class="clr"/>
        <circle r="3%" cx="83" cy="91" class="clr"/>
        <circle r="3%" cx="174" cy="0" class="clr"/>
        <circle r="3%" cx="234" cy="24" class="clr"/>
        <circle r="3%" cx="234" cy="211" class="clr"/>
        <circle r="3%" cx="174" cy="235" class="clr"/>
    </g>
</svg>