<svg xmlns="http://www.w3.org/2000/svg" version="1.1" xmlns:xlink="http://www.w3.org/1999/xlink" width="20" height="20">
    <circle fill="url(#1n540gfj)" r="10" cx="10" cy="10"/>
    <linearGradient id="1n540gfj">
        <stop stop-color="rgb(193, 45, 45)" offset="0%"/>
        <stop stop-color="rgb(41, 182, 215)" offset="100%"/>
    </linearGradient>
    <g stroke="rgb(234, 234, 234)">
        <circle fill="none" transform="matrix(0.6,0,0,0.6,2.3,1.4)" r="2" cx="8.5" cy="7.1"/>
        <circle fill="none" transform="matrix(0.6,0,0,0.6,3.5,3.4)" r="2" cx="10.3" cy="10.6"/>
        <circle fill="none" transform="matrix(0.6,0,0,0.6,5.7,2.6)" r="2" cx="14" cy="9.3"/>
        <circle fill="none" transform="matrix(0.6,0,0,0.6,5.5,5.2)" r="2" cx="13.6" cy="13.8"/>
        <circle fill="none" transform="matrix(0.6,0,0,0.6,2.2,5.6)" r="2" cx="8.2" cy="14.4"/>
        <path fill="none" transform="matrix(0.6,0,0,0.6,4.1,3.5)" d="M 6.2 5.3 l 2.3 3.4 M 8.1 12.2 l -2.2 4 M 7.2 17.9 l 6.7 -1.2 M 16.7 10 l -0.5 4.6 M 14.7 7 l -7.1 -3.3"/>
    </g>
</svg>